# xmcd
#
# Track frame offsets: 
#        225
#        11398
#        30653
#        32576
#        45411
#        50607
#        61804
#        67483
#        76452
#        89091
#        107495
#        123080
#        158153
#        173687
#        181176
#        188268
#        201933
#        211423
#        225430
#        242793
#        259181
#        279112
#
# Disc length: 3949 seconds
#
# Revision: 0
# Processed by: cddbd v1.5.1PL0 Copyright (c) Steve Scherf et al.
# Submitted via: ExactAudioCopy v0.95a5
#
DISCID=1e0f6a16
DTITLE=Beatles - Complete Edition CD 10
DYEAR=1969
DGENRE=Oldies
TTITLE0=Come and get it
TTITLE1=Come Together
TTITLE2=Her Majesty
TTITLE3=Octopus´ Garden
TTITLE4=Mean Mr. Mustard
TTITLE5=Sun King
TTITLE6=Polythene Pam
TTITLE7=She came in through the bathroom window
TTITLE8=Because
TTITLE9=You never give me your money
TTITLE10=Mawell´s silver hammer
TTITLE11=I want you
TTITLE12=Oh Darling
TTITLE13=Carry that weight
TTITLE14=Golden slumbers
TTITLE15=Something
TTITLE16=The end
TTITLE17=Here comes the sun
TTITLE18=Let it be
TTITLE19=The long and winding road
TTITLE20=Free as a bird
TTITLE21=Real love
EXTD=
EXTT0=
EXTT1=
EXTT2=
EXTT3=
EXTT4=
EXTT5=
EXTT6=
EXTT7=
EXTT8=
EXTT9=
EXTT10=
EXTT11=
EXTT12=
EXTT13=
EXTT14=
EXTT15=
EXTT16=
EXTT17=
EXTT18=
EXTT19=
EXTT20=
EXTT21=
PLAYORDER=
